<svg xmlns="http://www.w3.org/2000/svg" viewBox="0 0 64 64" width="64" height="64">
  <defs>
    <linearGradient id="icon-grad" x1="0%" y1="0%" x2="100%" y2="100%">
      <stop offset="0%" stop-color="#00f0ff" />
      <stop offset="100%" stop-color="#d800ff" />
    </linearGradient>
  </defs>
  
  <!-- Network lines -->
  <rect x="12" y="36" width="40" height="4" rx="2" fill="url(#icon-grad)" />
  <rect x="20" y="24" width="4" height="12" fill="url(#icon-grad)" />
  <rect x="40" y="24" width="4" height="12" fill="url(#icon-grad)" />
  <rect x="30" y="40" width="4" height="12" fill="url(#icon-grad)" />
  
  <!-- Nodes circles -->
  <circle cx="22" cy="22" r="6" fill="url(#icon-grad)" />
  <circle cx="42" cy="22" r="6" fill="url(#icon-grad)" />
  <circle cx="32" cy="52" r="6" fill="url(#icon-grad)" />
  
  <!-- Golden Crown resting on the nodes! -->
  <path d="M 22 14 L 18 4 L 28 8 L 32 2 L 36 8 L 46 4 L 42 14 Z" fill="#ffd700" stroke="#0a0a14" stroke-width="1.5" stroke-linejoin="round" />
  <rect x="22" y="13" width="20" height="2" rx="1" fill="#ffa500" />
  <circle cx="25" cy="14" r="0.8" fill="#fff" />
  <circle cx="32" cy="14" r="0.8" fill="#fff" />
  <circle cx="39" cy="14" r="0.8" fill="#fff" />
</svg>
